<?xml version="1.0" encoding="UTF-8" standalone="no"?>
<!-- Created with Inkscape (http://www.inkscape.org/) -->

<svg
   width="69mm"
   height="43mm"
   viewBox="0 0 69 43"
   version="1.1"
   id="svg5"
   inkscape:version="1.2.1 (9c6d41e410, 2022-07-14, custom)"
   sodipodi:docname="icon.svg"
   xmlns:inkscape="http://www.inkscape.org/namespaces/inkscape"
   xmlns:sodipodi="http://sodipodi.sourceforge.net/DTD/sodipodi-0.dtd"
   xmlns="http://www.w3.org/2000/svg"
   xmlns:svg="http://www.w3.org/2000/svg">
  <sodipodi:namedview
     id="namedview7"
     pagecolor="#ffffff"
     bordercolor="#111111"
     borderopacity="1"
     inkscape:showpageshadow="0"
     inkscape:pageopacity="0"
     inkscape:pagecheckerboard="1"
     inkscape:deskcolor="#d1d1d1"
     inkscape:document-units="mm"
     showgrid="false"
     inkscape:zoom="2"
     inkscape:cx="272.5"
     inkscape:cy="97.5"
     inkscape:window-width="1920"
     inkscape:window-height="997"
     inkscape:window-x="0"
     inkscape:window-y="0"
     inkscape:window-maximized="1"
     inkscape:current-layer="layer1" />
  <defs
     id="defs2">
    <rect
       x="105.94068"
       y="203.46416"
       width="561.88428"
       height="309.09512"
       id="rect790" />
  </defs>
  <g
     inkscape:label="Layer 1"
     inkscape:groupmode="layer"
     id="layer1">
    <path
       id="rect2970"
       style="fill:#170d61;stroke:#020014;stroke-width:1.11647;stroke-dasharray:none;stroke-opacity:1"
       d="M 1.346405,1.8907139 C 54.216318,1.571837 66.789992,3.8042797 67.676088,41.326364 14.806175,41.645242 0.83034736,36.041596 1.346405,1.8907139 Z"
       sodipodi:nodetypes="ccc" />
    <path
       id="path1834"
       style="fill:#77106e;stroke-width:0.264583"
       inkscape:transform-center-x="0.31183904"
       inkscape:transform-center-y="-0.22930289"
       d="M 15.966645,13.779984 10.595228,15.359233 6.5418493,11.497074 7.8598875,6.055666 13.231305,4.476417 17.284683,8.338576 Z" />
    <path
       id="path1834-3"
       style="fill:#77106e;stroke-width:0.264583"
       inkscape:transform-center-x="0.31183904"
       inkscape:transform-center-y="-0.22930289"
       d="m 25.096702,13.779984 -5.371417,1.579249 -4.053378,-3.862159 1.318038,-5.441408 5.371417,-1.579249 4.053379,3.862159 z" />
    <path
       id="path1834-6"
       style="fill:#77106e;stroke-width:0.264583"
       inkscape:transform-center-x="0.31183904"
       inkscape:transform-center-y="-0.22930289"
       d="m 34.025775,13.779984 -5.371417,1.579249 -4.053378,-3.862159 1.318038,-5.441408 5.371417,-1.579249 4.053379,3.862159 z" />
    <path
       id="path2438"
       style="fill:#9a1515;fill-opacity:1;stroke-width:0.769835;stroke-dasharray:none"
       d="m 44.304242,26.834625 c 0,1.552081 1.966023,2.703638 1.966023,3.975278 0,1.271636 -0.715968,2.35024 -1.919488,3.26364 2.235371,-0.25358 4.029295,-2.253695 4.029295,-3.763576 0,-1.50988 -1.967635,-3.033865 -1.967635,-4.193846 0,-1.159981 0.717578,-2.131669 1.921097,-3.045073 -2.235367,0.253583 -4.029292,2.211494 -4.029292,3.763577 z"
       sodipodi:nodetypes="zzczzcz" />
    <path
       id="path2438-6"
       style="fill:#9a1515;fill-opacity:1;stroke-width:0.769835;stroke-dasharray:none"
       d="m 48.19608,26.953454 c 0,1.552081 1.966022,2.703638 1.966022,3.975278 0,1.271638 -0.715968,2.350241 -1.919486,3.263641 2.235375,-0.25358 4.029297,-2.253697 4.029297,-3.763578 0,-1.509879 -1.967637,-3.033864 -1.967637,-4.193845 0,-1.159982 0.717571,-2.131669 1.921097,-3.045071 -2.235369,0.253581 -4.029293,2.211494 -4.029293,3.763575 z"
       sodipodi:nodetypes="zzczzcz" />
    <path
       id="path2438-5"
       style="fill:#9a1515;fill-opacity:1;stroke-width:0.769835;stroke-dasharray:none"
       d="m 40.484361,26.796408 c 0,1.552081 1.966023,2.703638 1.966023,3.975278 0,1.271636 -0.715968,2.350237 -1.919487,3.263637 2.23537,-0.25358 4.029296,-2.253692 4.029296,-3.763573 0,-1.509881 -1.967636,-3.033865 -1.967636,-4.193846 0,-1.159981 0.717576,-2.131669 1.921096,-3.045073 -2.235368,0.253583 -4.029292,2.211494 -4.029292,3.763577 z"
       sodipodi:nodetypes="zzczzcz" />
    <path
       id="path2438-3"
       style="fill:#c31b1b;fill-opacity:1;stroke-width:0.769835;stroke-dasharray:none"
       d="m 46.395876,31.040526 c 0,1.552081 -1.966023,2.703637 -1.966023,3.975277 0,1.27164 0.715968,2.35024 1.919486,3.26364 -2.235369,-0.25359 -4.029294,-2.25369 -4.029294,-3.76358 0,-1.509875 1.967634,-3.03386 1.967634,-4.193841 0,-1.159982 -0.717576,-2.131669 -1.921095,-3.045072 2.235367,0.253582 4.029292,2.211494 4.029292,3.763576 z"
       sodipodi:nodetypes="zzczzcz" />
    <path
       id="path2438-3-5"
       style="fill:#c31b1b;fill-opacity:1;stroke-width:0.769835;stroke-dasharray:none"
       d="m 50.356669,31.150782 c 0,1.552082 -1.966024,2.703641 -1.966024,3.975281 0,1.27163 0.715968,2.35023 1.919488,3.26364 -2.235371,-0.25359 -4.029295,-2.2537 -4.029295,-3.76358 0,-1.50988 1.967635,-3.033863 1.967635,-4.193845 0,-1.159981 -0.717577,-2.131668 -1.921096,-3.045071 2.235367,0.253582 4.029292,2.211492 4.029292,3.763575 z"
       sodipodi:nodetypes="zzczzcz" />
    <path
       id="path2438-3-5-2"
       style="fill:#c31b1b;fill-opacity:1;stroke-width:0.769835;stroke-dasharray:none"
       d="m 54.277108,31.284677 c 0,1.552083 -1.966029,2.703636 -1.966029,3.975276 0,1.27164 0.715963,2.35024 1.919489,3.26363 -2.235364,-0.25357 -4.029303,-2.25368 -4.029303,-3.76356 0,-1.50988 1.967635,-3.033867 1.967635,-4.193848 0,-1.159982 -0.717569,-2.131669 -1.921096,-3.045073 2.235382,0.253581 4.029304,2.211494 4.029304,3.763575 z"
       sodipodi:nodetypes="zzczzcz" />
    <g
       aria-label="Hexes
      and
        Hearth"
       transform="matrix(0.26458333,0,0,0.26458333,-19.767366,-49.523583)"
       id="text788"
       style="font-weight:bold;font-size:32px;font-family:Mali;-inkscape-font-specification:'Mali Bold';white-space:pre;shape-inside:url(#rect790);display:inline;fill:#ffc914;stroke-width:1.00157">
      <path
         d="m 127.86141,220.991 q 0.576,0 1.088,0.544 0.512,0.512 0.512,1.568 0,1.056 -0.512,1.568 -0.512,0.512 -1.12,0.512 h -0.256 l 0.16,5.984 q 0.032,1.024 -0.608,1.632 -0.608,0.576 -1.696,0.576 -1.056,0 -1.696,-0.544 -0.64,-0.576 -0.672,-1.536 l -0.192,-6.176 -8.16,-0.128 -0.544,6.88 q -0.128,1.664 -2.304,1.664 -1.216,0 -1.824,-0.48 -0.608,-0.512 -0.544,-1.504 l 0.512,-6.624 h -0.192 q -0.768,0 -1.216,-0.544 -0.416,-0.576 -0.416,-1.568 0,-0.992 0.48,-1.504 0.48,-0.544 1.28,-0.544 h 0.416 l 0.672,-8.64 q 0.064,-0.864 0.736,-1.408 0.672,-0.544 1.728,-0.544 1.12,0 1.696,0.64 0.576,0.64 0.512,1.664 l -0.672,8.352 7.712,0.096 -0.256,-8.576 q -0.032,-0.96 0.576,-1.568 0.64,-0.608 1.76,-0.608 1.056,0 1.696,0.608 0.64,0.576 0.672,1.44 l 0.256,8.768 z"
         style="fill:#cd1ebe"
         id="path2836" />
      <path
         d="m 141.87742,233.631 q -2.912,0 -4.928,-1.088 -1.984,-1.088 -2.976,-3.008 -0.992,-1.92 -0.992,-4.352 0,-2.432 1.12,-4.32 1.152,-1.92 3.104,-2.976 1.984,-1.056 4.416,-1.056 2.176,0 3.968,0.864 1.824,0.864 2.848,2.496 1.056,1.6 1.056,3.776 0,1.376 -0.512,1.984 -0.48,0.576 -1.664,0.576 h -10.336 q 0,0.768 0.544,1.568 0.544,0.768 1.632,1.312 1.088,0.544 2.592,0.544 1.344,0 2.112,-0.384 0.768,-0.416 1.6,-1.216 0.608,-0.544 1.248,-0.544 0.736,0 1.376,0.576 0.64,0.544 0.64,1.248 0,0.576 -0.384,1.12 -0.672,1.056 -2.272,1.984 -1.6,0.896 -4.192,0.896 z m 3.392,-9.984 q 0.288,0 0.352,-0.096 0.096,-0.096 0.096,-0.352 0,-1.248 -1.216,-2.08 -1.184,-0.832 -2.944,-0.832 -1.408,0 -2.464,0.544 -1.024,0.544 -1.568,1.344 -0.544,0.768 -0.544,1.472 z"
         style="fill:#cd1ebe"
         id="path2838" />
      <path
         d="m 166.00544,230.687 q 0.32,0.416 0.32,0.864 0,0.8 -0.736,1.44 -0.704,0.64 -1.568,0.64 -0.768,0 -1.28,-0.672 l -3.616,-4.704 q -1.856,2.752 -3.136,4.512 -0.288,0.416 -0.736,0.608 -0.448,0.224 -0.928,0.224 -0.928,0 -1.6,-0.64 -0.672,-0.64 -0.672,-1.376 0,-0.384 0.192,-0.672 1.248,-1.728 4.256,-6.08 l -4.096,-5.376 q -0.224,-0.32 -0.224,-0.704 0,-0.736 0.768,-1.376 0.768,-0.64 1.6,-0.64 0.8,0 1.216,0.544 l 3.136,4.096 1.024,-1.504 1.792,-2.592 q 0.384,-0.544 1.056,-0.544 0.864,0 1.664,0.704 0.8,0.704 0.8,1.408 0,0.288 -0.128,0.448 l -0.928,1.408 q -1.76,2.624 -2.688,4.032 z"
         style="fill:#cd1ebe"
         id="path2840" />
      <path
         d="m 177.78147,233.631 q -2.912,0 -4.928,-1.088 -1.984,-1.088 -2.976,-3.008 -0.992,-1.92 -0.992,-4.352 0,-2.432 1.12,-4.32 1.152,-1.92 3.104,-2.976 1.984,-1.056 4.416,-1.056 2.176,0 3.968,0.864 1.824,0.864 2.848,2.496 1.056,1.6 1.056,3.776 0,1.376 -0.512,1.984 -0.48,0.576 -1.664,0.576 h -10.336 q 0,0.768 0.544,1.568 0.544,0.768 1.632,1.312 1.088,0.544 2.592,0.544 1.344,0 2.112,-0.384 0.768,-0.416 1.6,-1.216 0.608,-0.544 1.248,-0.544 0.736,0 1.376,0.576 0.64,0.544 0.64,1.248 0,0.576 -0.384,1.12 -0.672,1.056 -2.272,1.984 -1.6,0.896 -4.192,0.896 z m 3.392,-9.984 q 0.288,0 0.352,-0.096 0.096,-0.096 0.096,-0.352 0,-1.248 -1.216,-2.08 -1.184,-0.832 -2.944,-0.832 -1.408,0 -2.464,0.544 -1.024,0.544 -1.568,1.344 -0.544,0.768 -0.544,1.472 z"
         style="fill:#cd1ebe"
         id="path2842" />
      <path
         d="m 194.70949,233.599 q -2.208,0 -3.936,-1.024 -1.728,-1.056 -2.464,-2.784 -0.192,-0.48 -0.192,-0.8 0,-0.672 0.704,-1.28 0.704,-0.608 1.536,-0.608 0.48,0 0.768,0.224 0.288,0.192 0.448,0.384 0.16,0.16 0.192,0.224 0.928,1.088 1.536,1.536 0.608,0.448 1.472,0.448 0.8,0 1.376,-0.32 0.576,-0.352 0.576,-0.96 0,-0.672 -0.672,-1.056 -0.672,-0.384 -2.176,-0.864 -1.664,-0.576 -2.72,-1.088 -1.024,-0.512 -1.824,-1.504 -0.768,-1.024 -0.768,-2.592 0,-1.568 0.896,-2.688 0.896,-1.152 2.368,-1.76 1.504,-0.608 3.232,-0.608 1.856,0 3.2,0.704 1.376,0.672 2.08,1.824 0.704,1.12 0.704,2.4 0,0.864 -0.48,1.312 -0.48,0.448 -1.6,0.448 -0.992,0 -1.376,-0.32 -0.352,-0.32 -0.448,-0.896 -0.096,-0.8 -0.512,-1.28 -0.384,-0.48 -1.568,-0.48 -0.896,0 -1.408,0.32 -0.48,0.32 -0.48,0.896 0,0.704 0.672,1.088 0.704,0.384 2.24,0.832 1.632,0.512 2.688,1.024 1.056,0.48 1.824,1.472 0.768,0.96 0.768,2.56 0,1.824 -1.024,3.008 -1.024,1.184 -2.56,1.696 -1.536,0.512 -3.072,0.512 z"
         style="fill:#cd1ebe"
         id="path2844" />
      <path
         d="m 192.14952,269.759 q 0.608,0.096 0.928,0.448 0.352,0.352 0.352,1.248 0,0.768 -0.416,1.312 -0.384,0.544 -1.056,0.544 -1.376,0 -2.112,-0.32 -0.736,-0.352 -1.344,-1.248 -0.704,1.056 -1.92,1.504 -1.216,0.416 -2.848,0.416 -3.616,0 -5.504,-2.08 -1.888,-2.08 -1.888,-5.792 0,-2.432 0.992,-4.32 0.992,-1.888 2.752,-2.944 1.792,-1.056 4.096,-1.056 1.152,0 2.144,0.448 0.992,0.448 1.504,1.184 l 0.064,-0.416 q 0.064,-0.448 0.512,-0.736 0.448,-0.32 1.408,-0.32 1.024,0 1.504,0.416 0.48,0.416 0.48,1.056 0,0.224 -0.032,0.352 -0.192,1.088 -0.384,3.648 -0.096,1.184 -0.096,3.04 v 1.6 q 0,0.928 0.16,1.44 0.16,0.48 0.704,0.576 z m -5.344,-2.208 q 0.032,-1.312 0.032,-4.064 0,-1.088 -0.736,-1.76 -0.704,-0.704 -1.824,-0.704 -1.44,0 -2.368,1.344 -0.928,1.312 -0.928,3.392 0,1.984 0.832,3.168 0.832,1.184 2.24,1.184 1.312,0 2.016,-0.64 0.704,-0.672 0.736,-1.92 z"
         style="fill:#aeaa3d"
         id="path2846" />
      <path
         d="m 205.55753,256.959 q 2.816,0 4.352,1.984 1.568,1.952 1.568,5.792 l -0.032,7.232 q 0,0.672 -0.672,1.024 -0.64,0.352 -1.6,0.352 -0.928,0 -1.664,-0.32 -0.704,-0.32 -0.704,-0.896 l 0.032,-7.424 q 0,-2.336 -0.512,-3.264 -0.512,-0.928 -1.6,-0.928 -0.928,0 -1.472,0.832 -0.544,0.832 -0.928,3.232 -0.224,1.344 -0.224,2.976 l 0.032,4.128 q 0,0.832 -0.64,1.28 -0.608,0.416 -1.664,0.416 -1.088,0 -1.728,-0.448 -0.608,-0.448 -0.608,-1.248 0,-6.656 -0.192,-10.368 -0.032,-0.384 -0.192,-0.704 -0.128,-0.352 -0.32,-0.64 -0.192,-0.288 -0.288,-0.448 -0.192,-0.352 -0.192,-0.704 0,-0.672 0.768,-1.248 0.8,-0.608 1.536,-0.608 0.352,0 0.672,0.224 0.352,0.224 0.768,0.736 0.352,0.448 0.512,0.8 0.16,0.352 0.16,0.8 v 0.288 q 0.576,-1.216 1.728,-2.016 1.184,-0.832 3.104,-0.832 z"
         style="fill:#aeaa3d"
         id="path2848" />
      <path
         d="m 222.96551,273.631 q -2.528,0 -4.48,-1.024 -1.952,-1.056 -3.04,-2.976 -1.088,-1.92 -1.088,-4.448 0,-2.528 1.056,-4.416 1.056,-1.888 2.976,-2.912 1.92,-1.024 4.448,-1.024 2.336,0 3.84,0.992 l 0.352,-7.68 0.096,-2.24 q 0.032,-0.768 0.672,-1.216 0.64,-0.48 1.6,-0.48 1.056,0 1.728,0.576 0.704,0.544 0.608,1.376 -0.192,1.6 -0.384,7.104 -0.16,5.472 -0.16,9.664 0,3.552 0.16,4.288 0.16,0.608 0.832,1.632 0.192,0.288 0.192,0.672 0,0.8 -0.768,1.472 -0.736,0.64 -1.632,0.64 -0.416,0 -0.8,-0.128 -0.384,-0.096 -0.608,-0.288 -0.96,-0.736 -1.408,-1.792 -1.728,2.208 -4.192,2.208 z m 0.032,-3.648 q 0.96,0 1.792,-0.512 0.832,-0.512 1.312,-1.312 0.512,-0.832 0.512,-1.696 v -4.768 q -0.352,-0.448 -1.472,-0.864 -1.088,-0.448 -2.08,-0.448 -1.92,0 -3.008,1.312 -1.056,1.28 -1.056,3.552 0,2.112 1.12,3.424 1.152,1.312 2.88,1.312 z"
         style="fill:#aeaa3d"
         id="path2850" />
      <path
         d="m 220.02156,300.991 q 0.576,0 1.088,0.544 0.512,0.512 0.512,1.568 0,1.056 -0.512,1.568 -0.512,0.512 -1.12,0.512 h -0.256 l 0.16,5.984 q 0.032,1.024 -0.608,1.632 -0.608,0.576 -1.696,0.576 -1.056,0 -1.696,-0.544 -0.64,-0.576 -0.672,-1.536 l -0.192,-6.176 -8.16,-0.128 -0.544,6.88 q -0.128,1.664 -2.304,1.664 -1.216,0 -1.824,-0.48 -0.608,-0.512 -0.544,-1.504 l 0.512,-6.624 h -0.192 q -0.768,0 -1.216,-0.544 -0.416,-0.576 -0.416,-1.568 0,-0.992 0.48,-1.504 0.48,-0.544 1.28,-0.544 h 0.416 l 0.672,-8.64 q 0.064,-0.864 0.736,-1.408 0.672,-0.544 1.728,-0.544 1.12,0 1.696,0.64 0.576,0.64 0.512,1.664 l -0.672,8.352 7.712,0.096 -0.256,-8.576 q -0.032,-0.96 0.576,-1.568 0.64,-0.608 1.76,-0.608 1.056,0 1.696,0.608 0.64,0.576 0.672,1.44 l 0.256,8.768 z"
         style="fill:#e07731"
         id="path2852" />
      <path
         d="m 234.03757,313.631 q -2.912,0 -4.928,-1.088 -1.984,-1.088 -2.976,-3.008 -0.992,-1.92 -0.992,-4.352 0,-2.432 1.12,-4.32 1.152,-1.92 3.104,-2.976 1.984,-1.056 4.416,-1.056 2.176,0 3.968,0.864 1.824,0.864 2.848,2.496 1.056,1.6 1.056,3.776 0,1.376 -0.512,1.984 -0.48,0.576 -1.664,0.576 h -10.336 q 0,0.768 0.544,1.568 0.544,0.768 1.632,1.312 1.088,0.544 2.592,0.544 1.344,0 2.112,-0.384 0.768,-0.416 1.6,-1.216 0.608,-0.544 1.248,-0.544 0.736,0 1.376,0.576 0.64,0.544 0.64,1.248 0,0.576 -0.384,1.12 -0.672,1.056 -2.272,1.984 -1.6,0.896 -4.192,0.896 z m 3.392,-9.984 q 0.288,0 0.352,-0.096 0.096,-0.096 0.096,-0.352 0,-1.248 -1.216,-2.08 -1.184,-0.832 -2.944,-0.832 -1.408,0 -2.464,0.544 -1.024,0.544 -1.568,1.344 -0.544,0.768 -0.544,1.472 z"
         style="fill:#e07731"
         id="path2854" />
      <path
         d="m 260.02159,309.759 q 0.608,0.096 0.928,0.448 0.352,0.352 0.352,1.248 0,0.768 -0.416,1.312 -0.384,0.544 -1.056,0.544 -1.376,0 -2.112,-0.32 -0.736,-0.352 -1.344,-1.248 -0.704,1.056 -1.92,1.504 -1.216,0.416 -2.848,0.416 -3.616,0 -5.504,-2.08 -1.888,-2.08 -1.888,-5.792 0,-2.432 0.992,-4.32 0.992,-1.888 2.752,-2.944 1.792,-1.056 4.096,-1.056 1.152,0 2.144,0.448 0.992,0.448 1.504,1.184 l 0.064,-0.416 q 0.064,-0.448 0.512,-0.736 0.448,-0.32 1.408,-0.32 1.024,0 1.504,0.416 0.48,0.416 0.48,1.056 0,0.224 -0.032,0.352 -0.192,1.088 -0.384,3.648 -0.096,1.184 -0.096,3.04 v 1.6 q 0,0.928 0.16,1.44 0.16,0.48 0.704,0.576 z m -5.344,-2.208 q 0.032,-1.312 0.032,-4.064 0,-1.088 -0.736,-1.76 -0.704,-0.704 -1.824,-0.704 -1.44,0 -2.368,1.344 -0.928,1.312 -0.928,3.392 0,1.984 0.832,3.168 0.832,1.184 2.24,1.184 1.312,0 2.016,-0.64 0.704,-0.672 0.736,-1.92 z"
         style="fill:#e07731"
         id="path2856" />
      <path
         d="m 273.3656,296.703 q 1.28,0 2.368,0.608 1.088,0.576 1.728,1.664 0.64,1.088 0.64,2.528 0,2.08 -1.376,3.232 -1.344,1.12 -3.488,1.12 -1.12,0 -1.568,-0.32 -0.448,-0.352 -0.448,-1.152 0,-0.768 0.32,-1.056 0.32,-0.32 0.896,-0.384 1.888,-0.192 1.888,-1.568 0,-0.576 -0.288,-0.864 -0.256,-0.32 -0.736,-0.32 -0.864,0 -1.6,0.992 -0.736,0.96 -1.216,2.272 -0.48,1.28 -0.608,2.176 -0.224,1.408 -0.224,4.992 0,1.728 -0.512,2.368 -0.48,0.608 -1.728,0.608 -1.152,0 -1.76,-0.448 -0.576,-0.448 -0.608,-1.376 v -1.472 -3.712 q 0,-2.048 -0.096,-3.456 -0.096,-1.44 -0.32,-3.68 l -0.128,-1.312 q -0.064,-0.8 0.512,-1.312 0.608,-0.512 1.664,-0.512 1.792,0 1.92,1.6 0.064,0.768 0.128,2.176 0.64,-1.504 1.792,-2.432 1.184,-0.96 2.848,-0.96 z"
         style="fill:#e07731"
         id="path2858" />
      <path
         d="m 290.4856,306.943 q 1.056,0 1.536,0.416 0.48,0.416 0.48,1.344 0,2.112 -1.344,3.392 -1.344,1.28 -3.392,1.28 -2.784,0 -4.064,-2.24 -1.28,-2.272 -1.28,-7.168 0,-1.472 0.032,-2.144 -0.224,-0.032 -0.736,-0.032 -1.824,-0.032 -1.824,-1.76 0,-0.896 0.448,-1.344 0.48,-0.448 1.664,-0.416 l 0.704,0.032 q 0.224,-1.984 0.736,-4.864 0.128,-0.768 0.704,-1.152 0.608,-0.416 1.536,-0.416 1.088,0 1.696,0.512 0.608,0.512 0.608,1.248 l -0.032,0.256 -0.16,1.024 q -0.384,2.624 -0.512,3.584 1.088,0.064 1.664,0.064 1.632,0.032 1.632,1.696 0,0.832 -0.448,1.248 -0.448,0.416 -1.504,0.416 h -1.6 q -0.032,0.64 -0.032,2.048 0,2.368 0.096,3.648 0.128,1.248 0.352,1.696 0.224,0.448 0.576,0.448 0.448,0 0.576,-0.288 0.128,-0.288 0.128,-1.024 0,-1.504 1.76,-1.504 z"
         style="fill:#e07731"
         id="path2860" />
      <path
         d="m 310.00561,301.151 q 0.768,3.168 0.768,10.304 0,0.768 -0.672,1.248 -0.672,0.48 -1.632,0.48 -0.992,0 -1.664,-0.512 -0.672,-0.512 -0.672,-1.44 0,-3.936 -0.096,-6.112 -0.064,-2.176 -0.384,-3.52 -0.224,-0.896 -0.672,-1.152 -0.448,-0.288 -0.992,-0.288 -1.76,0 -2.592,1.344 -0.832,1.312 -0.832,3.456 v 6.592 q 0,0.704 -0.672,1.184 -0.672,0.448 -1.632,0.448 -0.96,0 -1.632,-0.48 -0.672,-0.48 -0.672,-1.184 0,-6.144 0.16,-12.224 0.064,-2.272 0.32,-6.976 l 0.128,-2.272 q 0.064,-0.832 0.672,-1.344 0.608,-0.544 1.632,-0.544 0.992,0 1.568,0.48 0.576,0.48 0.544,1.28 -0.256,3.776 -0.448,8.16 0.736,-0.672 1.824,-1.056 1.088,-0.416 2.464,-0.416 2.144,0 3.36,1.12 1.248,1.088 1.824,3.424 z"
         style="fill:#e07731"
         id="path2862" />
    </g>
  </g>
</svg>
