<?xml version="1.0" encoding="UTF-8" standalone="no"?>
<svg
   viewBox="0 0 24 24"
   fillStroke="white"
   version="1.1"
   id="svg4"
   xmlns="http://www.w3.org/2000/svg"
   xmlns:svg="http://www.w3.org/2000/svg">
  <defs
     id="defs8" />
  <path
     style="fill:#ffffff"
     id="path2011"
     d="M 5.9140197,5.3407263 C 5.8703366,5.4515072 4.8660186,5.5793265 4.75952,5.6326059 4.6611466,5.6818203 4.0193385,6.3801442 3.9170094,6.3397938 3.8062285,6.2961107 3.6784092,5.2917927 3.6251298,5.1852941 3.5759154,5.0869207 2.8775915,4.4451126 2.9179419,4.3427835 2.961625,4.2320026 3.9659431,4.1041833 4.0724416,4.0509039 4.170815,4.0016895 4.8126231,3.3033656 4.9149522,3.343716 c 0.1107809,0.043683 0.2386002,1.0480012 0.2918796,1.1544997 0.049214,0.098373 0.7475383,0.7401815 0.7071879,0.8425106 z"
     transform="matrix(2.5086031,-0.33206905,0.33206905,2.5086031,-6.583307,-2.0035821)" />
  <path
     style="fill:#ffffff"
     id="path2013"
     d="m 4.1265243,3.2239174 c 0.1236299,-0.01528 0.7175451,0.8667638 0.8197664,0.9379582 0.094818,0.066038 1.0733548,0.2757467 1.0875277,0.3904228 C 6.0490979,4.6759283 5.1670545,5.2698435 5.0958601,5.3720648 5.029822,5.4668826 4.8201134,6.4454196 4.7054374,6.4595925 4.5818074,6.474872 3.9878922,5.5928286 3.885671,5.5216342 3.7908531,5.4555961 2.8123162,5.2458875 2.7981433,5.1312115 2.7828637,5.0075815 3.6649071,4.4136663 3.7361015,4.3114451 3.8021396,4.2166272 4.0118482,3.2380903 4.1265243,3.2239174 Z"
     transform="matrix(-2.2134002,-1.2365828,1.2365828,-2.2134002,20.951271,22.721063)" />
  <path
     style="fill:#ffffff"
     id="path2013-6"
     d="M 4.1265243,3.2239174 C 4.2501428,3.2086392 4.8444529,4.0902082 4.9466647,4.161396 5.041467,4.2274233 6.0196478,4.4376412 6.0338184,4.5522984 6.0490965,4.6759169 5.1675275,5.270227 5.0963397,5.3724388 5.0303124,5.4672411 4.8200946,6.4454219 4.7054374,6.4595925 4.5818188,6.4748706 3.9875087,5.5933016 3.8852969,5.5221138 3.7904946,5.4560865 2.8123138,5.2458687 2.7981433,5.1312115 2.7828651,5.0075929 3.6644341,4.4132828 3.7356219,4.311071 3.8016492,4.2162687 4.0118671,3.2380879 4.1265243,3.2239174 Z"
     transform="matrix(-1.4104103,-2.0080696,2.0080696,-1.4104103,9.2646493,33.491798)" />
</svg>
